<?xml version="1.0" encoding="iso-8859-1"?>
<!-- Generator: Adobe Illustrator 19.0.0, SVG Export Plug-In . SVG Version: 6.00 Build 0)  -->
<svg version="1.1" id="Capa_1" xmlns="http://www.w3.org/2000/svg" xmlns:xlink="http://www.w3.org/1999/xlink" x="0px" y="0px"
	 viewBox="0 0 512 512" style="enable-background:new 0 0 512 512;" xml:space="preserve">
<circle style="fill:#445280;" cx="255.998" cy="255.999" r="255.873"/>
<path style="fill:#F43F7E;" d="M120.356,334.027l-13.922,6.527l-78.516-167.57L1.496,229.369
	c3.363-32.511,12.815-63.227,27.196-90.965L120.356,334.027z"/>
<path style="fill:#FDD36E;" d="M123.072,332.867c-26.245,26.245-60.647,39.383-95.038,39.415
	c-6.433-12.574-11.854-25.744-16.157-39.415H123.072z"/>
<path style="fill:#F43F7E;" d="M510.504,229.369l-26.423-56.386l-78.527,167.57l-13.922-6.527l91.676-195.622
	C497.69,166.153,507.142,196.847,510.504,229.369z"/>
<path style="fill:#FDD36E;" d="M500.123,332.867c-4.303,13.671-9.723,26.841-16.157,39.415
	c-34.402-0.031-68.793-13.17-95.038-39.415H500.123z"/>
<path style="fill:#FBB659;" d="M487.225,365.682c-1.055,2.214-2.141,4.418-3.258,6.6c-34.412-0.031-68.804-13.17-95.049-39.415
	h44.856C449.304,348.397,467.685,359.332,487.225,365.682z"/>
<path style="fill:#F7A15F;" d="M512,125.902c0,12.076-11.015,21.301-22.852,18.914c-36.683-7.398-65.282-31.524-91.015-53.231
	c-22.516-18.994-43.783-36.934-63.91-36.934c-28.7,0-45.733,28.758-53.828,47.657c-4.189,9.78-13.787,16.122-24.426,16.11l0,0
	c-10.613-0.014-20.179-6.35-24.358-16.106c-8.088-18.884-25.124-47.66-53.832-47.66c-20.127,0-41.394,17.94-63.91,36.934
	c-25.733,21.708-54.332,45.834-91.015,53.232C11.015,147.204,0,137.978,0,125.903l0,0c0-9.051,6.281-16.986,15.146-18.806
	c27.378-5.62,50.989-25.536,73.936-44.894c26.804-22.612,54.521-45.993,88.697-45.993c30.798,0,57.515,16.639,77.26,48.118
	c0.326,0.519,0.645,1.037,0.962,1.555c0.316-0.519,0.637-1.036,0.962-1.555c19.746-31.479,46.462-48.118,77.26-48.118
	c34.175,0,61.892,23.38,88.696,45.992c22.948,19.358,46.557,39.275,73.936,44.894C505.719,108.916,512,116.852,512,125.902
	L512,125.902z"/>
<path style="fill:#D8874E;" d="M489.148,122.305c-36.684-7.398-65.282-31.523-91.015-53.231
	c-22.516-18.994-43.783-36.934-63.91-36.934c-28.7,0-45.733,28.758-53.828,47.657c-4.189,9.78-13.787,16.123-24.426,16.108
	c-10.613-0.014-20.179-6.35-24.358-16.105c-8.088-18.884-25.124-47.66-53.832-47.66c-20.127,0-41.394,17.94-63.91,36.934
	c-25.733,21.708-54.332,45.834-91.015,53.232c-7.695,1.552-15.021-1.82-19.222-7.676C1.338,117.831,0,121.744,0,125.902v0.001
	c0,12.075,11.015,21.301,22.852,18.914c36.684-7.398,65.282-31.524,91.015-53.232c22.516-18.994,43.783-36.934,63.91-36.934
	c28.709,0,45.745,28.776,53.832,47.66c4.179,9.757,13.744,16.093,24.358,16.106c10.639,0.014,20.237-6.33,24.426-16.11
	c8.095-18.899,25.129-47.657,53.828-47.657c20.127,0,41.394,17.94,63.91,36.934c25.733,21.707,54.332,45.833,91.015,53.231
	c11.838,2.387,22.852-6.839,22.852-18.915c0-4.158-1.338-8.071-3.631-11.274C504.169,120.485,496.843,123.856,489.148,122.305z"/>
<path style="fill:#F7A15F;" d="M275.217,0.839v454.868h-38.444V0.839c6.35-0.47,12.762-0.71,19.227-0.71
	C262.465,0.128,268.867,0.369,275.217,0.839z"/>
<path style="fill:#D8874E;" d="M252.157,0.16v449.145h-15.384V0.839C241.859,0.463,246.987,0.233,252.157,0.16z"/>
<g>
	<path style="fill:#F7A15F;" d="M289.944,256.064h-67.889c-10.263,0-18.584-8.321-18.584-18.584l0,0
		c0-10.263,8.321-18.584,18.584-18.584h67.889c10.263,0,18.584,8.321,18.584,18.584l0,0
		C308.528,247.743,300.207,256.064,289.944,256.064z"/>
	<path style="fill:#F7A15F;" d="M289.944,293.23h-67.889c-10.263,0-18.584-8.321-18.584-18.584l0,0
		c0-10.263,8.321-18.584,18.584-18.584h67.889c10.263,0,18.584,8.321,18.584,18.584l0,0
		C308.528,284.91,300.207,293.23,289.944,293.23z"/>
</g>
<g>
	<path style="fill:#D8874E;" d="M235.502,274.647L235.502,274.647c0-10.263,8.32-18.584,18.584-18.584h-32.03
		c-10.263,0-18.584,8.32-18.584,18.584l0,0c0,10.263,8.321,18.584,18.584,18.584h32.03
		C243.823,293.231,235.502,284.91,235.502,274.647z"/>
	<path style="fill:#D8874E;" d="M235.502,237.48L235.502,237.48c0-10.263,8.32-18.584,18.584-18.584h-32.03
		c-10.263,0-18.584,8.321-18.584,18.584l0,0c0,10.263,8.321,18.584,18.584,18.584h32.03
		C243.823,256.064,235.502,247.743,235.502,237.48z"/>
</g>
<path style="fill:#F7A15F;" d="M380.25,479.728c-36.793,20.48-79.153,32.146-124.25,32.146s-87.456-11.666-124.25-32.146
	c8.198-17.953,26.308-30.433,47.342-30.433h153.816C353.942,449.294,372.051,461.775,380.25,479.728z"/>
<path style="fill:#D8874E;" d="M229.066,449.294c-28.115,0-51.018,22.297-51.979,50.172c-15.843-5.128-31.018-11.76-45.336-19.739
	c8.198-17.953,26.308-30.433,47.342-30.433L229.066,449.294L229.066,449.294z"/>
<g>
</g>
<g>
</g>
<g>
</g>
<g>
</g>
<g>
</g>
<g>
</g>
<g>
</g>
<g>
</g>
<g>
</g>
<g>
</g>
<g>
</g>
<g>
</g>
<g>
</g>
<g>
</g>
<g>
</g>
</svg>
